<svg width="56" height="74" viewBox="0 0 56 74" fill="none" xmlns="http://www.w3.org/2000/svg">
<path d="M12.1281 0.018558C15.8625 -0.194242 18.2973 1.4075 18.2973 5.62773V12.681C18.2973 15.2443 16.9987 15.7799 15.0488 16.7388C14.6699 16.899 14.7231 17.2721 15.1034 17.4324C16.0785 17.8076 16.6189 18.5012 16.89 19.6774C17.9193 23.204 20.3 25.8728 24.0876 25.8728L32.2072 25.9805C33.3425 25.9805 33.7205 26.2481 33.7205 27.69L33.5049 31.2167C33.5049 31.9102 33.1269 32.6586 31.7737 32.6586H24.4661C16.6722 32.6586 11.6924 27.958 10.286 21.3873C10.1236 21.012 10.0149 20.4787 9.58101 20.4787H9.30992C8.93193 20.4787 8.82277 20.7462 8.82277 21.1193V28.9187C8.82277 30.2529 8.44254 30.8409 6.98289 30.8409L2.16555 31.0012C0.704553 31.1089 0 30.6281 0 29.2917L0.271085 3.1174C0.271085 1.781 0.973846 0.499344 2.97701 0.39162L12.1281 0.018558ZM9.09207 8.3535C8.82278 8.3535 8.60492 8.61928 8.60492 8.83208V11.6629C8.60492 11.9835 8.82054 12.1963 9.09207 12.1963H9.47007C9.63245 12.1963 9.90354 11.9835 9.90354 11.6629V8.83208C9.90354 8.61928 9.63245 8.3535 9.47007 8.3535H9.09207ZM25.0561 1.781C26.1923 1.781 26.6249 2.52933 26.6249 3.3302L27.2207 18.1785C27.2207 18.2862 27.3831 18.3387 27.4918 18.3387H27.7629C27.8721 18.3387 28.034 18.2862 28.034 18.073V1.77835C28.034 0.498903 28.5211 0.125842 29.6037 0.0181174H32.9583C34.3656 -0.0366277 34.6903 0.658724 34.6903 1.93861L34.3656 18.9794C34.15 22.2932 32.7959 24.3232 29.3326 24.4834L26.8423 24.6962C23.0543 24.8565 21.1052 22.6663 20.8896 19.2473L19.9158 3.758C19.8625 2.69136 20.4029 1.94303 21.918 1.83574L25.0556 1.781H25.0561Z" fill="#CCF725"/>
<path d="M42.4538 2.05296C44.1313 2.15848 44.1313 3.06707 44.6185 4.40346L47.1088 12.1481C47.2712 12.6815 47.9194 12.6289 47.8661 12.0404C47.7037 10.3857 47.217 4.98933 46.9468 2.42602C46.8914 0.822075 47.4872 0.233565 49.1647 0.181027L53.0615 0.0207665C54.5225 -0.0869578 55.4431 0.393827 55.4431 2.05075V28.4401C55.4431 29.456 54.7403 30.097 53.8197 30.097L50.2473 30.2573C48.7863 30.2573 48.2974 29.7218 47.757 28.2798L45.1052 20.6407C44.996 20.2676 44.5648 20.3749 44.618 20.7484C44.6713 22.1903 45.2671 29.0264 45.4295 30.8436C45.4827 31.75 44.6713 32.391 43.7506 32.4436L38.7718 32.6564C37.8534 32.7111 37.0397 32.1756 36.9861 30.8961L36.337 3.92047C36.2815 2.37127 36.8241 1.73023 38.5562 1.83795L42.4529 2.05296H42.4538Z" fill="#CCF725"/>
<path d="M8.3486 34.4502C10.2462 34.387 10.9029 35.1627 10.9029 36.6488L10.5741 64.9692C10.5741 65.2937 10.5741 65.7449 11.3601 65.7449L28.854 65.8756C30.0993 65.9387 30.6214 66.4575 30.5574 67.7498L30.4259 70.9832C30.3588 73.6331 28.9832 73.9576 27.0834 73.9576L3.10539 73.6331C1.20333 73.6331 0.155673 72.5982 0.220984 70.7219L0.548881 37.3592C0.548881 35.5464 1.13623 34.7729 3.10316 34.7075L8.3486 34.4502ZM26.293 34.4502C27.7325 34.387 28.3874 34.9014 28.5185 36.13L31.5322 62.1887C31.5975 63.2218 31.1389 63.8708 30.2219 63.9339L24.7188 64.322C23.6049 64.3851 23.0807 63.9322 23.0154 63.0929L22.819 56.6255C22.819 56.4316 22.6875 56.1742 22.3596 56.1742H21.4443C21.0511 56.1742 20.9187 56.4316 20.9187 56.6255L20.7872 61.7984C20.7872 62.8333 20.0012 63.4152 18.9545 63.2867L13.7121 62.8333C12.5343 62.7048 12.0087 62.1883 12.2055 60.9591L14.3693 37.2929C14.5008 36.0007 15.1552 35.1574 16.533 35.0943L26.293 34.4493V34.4502ZM21.7073 42.0134H21.5781C21.3141 42.0134 21.2502 42.1418 21.2502 42.4646L21.1178 48.2194C21.1178 48.4808 21.2502 48.5439 21.4466 48.5439H22.1001C22.2294 48.5439 22.3618 48.4808 22.3618 48.2865L22.1001 42.4663C22.1001 42.1458 21.9686 42.0151 21.7069 42.0151V42.0129L21.7073 42.0134Z" fill="#CCF725"/>
<path d="M50.7581 54.8171C50.1686 54.5579 50.1686 53.9107 50.7581 53.6533C53.511 52.4224 55.1474 51.1302 55.2136 46.5409V41.3701C55.2136 36.1318 52.2652 34.2577 47.812 34.4519L36.6747 34.9031C34.3168 35.0338 33.3993 36.5199 33.3993 38.2655V70.2053C33.3993 71.8874 34.5132 72.8569 36.413 72.9858L48.5971 73.9554C53.0534 74.3434 56 72.2119 56 67.1025V63.2218C56 58.2426 54.7546 55.7848 50.7586 54.8175L50.7581 54.8171ZM45.6898 52.3249C45.6813 52.6736 45.6778 55.3897 45.6778 55.746C45.6778 55.901 45.6702 56.0096 45.6549 56.0714C45.5919 56.2877 45.5646 56.5049 45.5722 56.7213C45.5798 56.9385 45.5843 57.1548 45.5843 57.3716C45.5843 57.6197 45.5798 60.8722 45.5722 61.1044C45.5646 61.3366 45.5449 61.5768 45.5136 61.8245C45.4818 61.9949 45.4702 62.1724 45.4787 62.3587C45.4863 62.5441 45.4903 62.73 45.4903 62.9163C45.4742 63.1017 45.4706 63.284 45.4787 63.462C45.4863 63.6399 45.4903 63.8222 45.4903 64.0077C45.4903 64.4103 45.3177 64.7432 44.9723 65.0063C44.9097 65.0686 44.8551 65.1074 44.8077 65.1229C44.5406 65.2001 44.2781 65.2703 44.019 65.3317C43.76 65.3935 43.4898 65.378 43.2076 65.2849C43.1132 65.254 43.0197 65.2306 42.9253 65.2156C42.8309 65.1997 42.745 65.1767 42.6663 65.1458C42.1013 64.9291 41.7953 64.5264 41.7488 63.9379C41.6696 63.179 41.6307 62.4086 41.6307 61.6267C41.6307 60.8448 41.6146 56.9385 41.5838 55.9314C41.599 55.5292 41.6151 52.6622 41.6307 52.0578C41.6459 51.4534 41.6696 50.8269 41.7014 50.1761C41.7327 49.8666 41.764 49.5607 41.7949 49.2587C41.8262 48.9572 41.8499 48.6512 41.8656 48.3417C41.8343 48.3726 41.7873 48.4035 41.7247 48.434C41.6455 48.4653 41.5753 48.4962 41.5131 48.5271C41.45 48.5581 41.3793 48.566 41.301 48.5505C41.144 48.5355 41.0188 48.4658 40.9248 48.3417C40.8304 48.2177 40.7598 48.0861 40.7132 47.9466C40.6341 47.7916 40.5679 47.6371 40.5128 47.4821C40.4574 47.3272 40.4068 47.1726 40.3598 47.0177C40.3129 46.8782 40.2538 46.7192 40.1832 46.5413C40.1125 46.3638 40.0932 46.2049 40.1245 46.0649C40.1559 45.9418 40.2145 45.853 40.3013 45.7983C40.3871 45.744 40.4694 45.6786 40.5477 45.6005C40.6734 45.4773 40.8027 45.3533 40.936 45.2292C41.0693 45.1051 41.1986 44.9811 41.3243 44.8575C41.5283 44.6566 41.7439 44.4667 41.9716 44.2884C42.1993 44.1105 42.4458 43.9824 42.7133 43.9052C42.9486 43.8588 43.1915 43.8354 43.4429 43.8354C43.5212 43.8204 43.5959 43.812 43.6665 43.812H43.8898C43.9211 43.812 43.9569 43.8089 43.9958 43.8005C44.0351 43.793 44.0785 43.7886 44.1251 43.7886C44.2821 43.7736 44.4386 43.7621 44.5961 43.7542C44.7522 43.7467 44.9097 43.7502 45.0667 43.7656C45.4116 43.797 45.608 43.9829 45.6554 44.3233C45.6706 44.5096 45.6782 44.699 45.6782 44.8928V48.0631C45.6782 48.6049 45.6822 49.1391 45.6903 49.6653C45.6979 50.192 45.7019 50.7262 45.7019 51.2679C45.7019 51.6242 45.6979 51.9765 45.6903 52.3244L45.6898 52.3249Z" fill="#CCF725"/>
</svg>
